<mxfile host="Electron" modified="2024-04-24T11:26:06.239Z" agent="Mozilla/5.0 (Windows NT 10.0; Win64; x64) AppleWebKit/537.36 (KHTML, like Gecko) draw.io/24.2.5 Chrome/120.0.6099.109 Electron/28.1.0 Safari/537.36" etag="VUGh8_By6emWd8FL1QVM" version="24.2.5" type="device">
  <diagram name="Page-1" id="gAakV0SlsiDxPiXOkjk7">
    <mxGraphModel dx="2071" dy="1923" grid="1" gridSize="10" guides="1" tooltips="1" connect="1" arrows="1" fold="1" page="1" pageScale="1" pageWidth="850" pageHeight="1100" math="0" shadow="0">
      <root>
        <mxCell id="0" />
        <mxCell id="1" parent="0" />
        <mxCell id="2mcqdDNEF0mdqTCsAkvW-1" value="" style="rounded=0;whiteSpace=wrap;html=1;" parent="1" vertex="1">
          <mxGeometry x="-100" y="100" width="670" height="320" as="geometry" />
        </mxCell>
        <mxCell id="2mcqdDNEF0mdqTCsAkvW-2" style="edgeStyle=orthogonalEdgeStyle;rounded=0;orthogonalLoop=1;jettySize=auto;html=1;exitX=0.5;exitY=1;exitDx=0;exitDy=0;" parent="1" source="2mcqdDNEF0mdqTCsAkvW-3" target="2mcqdDNEF0mdqTCsAkvW-1" edge="1">
          <mxGeometry relative="1" as="geometry" />
        </mxCell>
        <mxCell id="2mcqdDNEF0mdqTCsAkvW-3" value="Memento_Pattern" style="swimlane;whiteSpace=wrap;html=1;startSize=40;" parent="1" vertex="1">
          <mxGeometry x="145" y="-70" width="180" height="100" as="geometry" />
        </mxCell>
        <mxCell id="2mcqdDNEF0mdqTCsAkvW-4" value="+main(): void" style="text;html=1;align=center;verticalAlign=middle;resizable=0;points=[];autosize=1;strokeColor=none;fillColor=none;" parent="2mcqdDNEF0mdqTCsAkvW-3" vertex="1">
          <mxGeometry x="45" y="55" width="90" height="30" as="geometry" />
        </mxCell>
        <mxCell id="2mcqdDNEF0mdqTCsAkvW-5" value="DBA" style="swimlane;whiteSpace=wrap;html=1;startSize=40;" parent="1" vertex="1">
          <mxGeometry x="-75" y="185" width="180" height="145" as="geometry" />
        </mxCell>
        <mxCell id="2mcqdDNEF0mdqTCsAkvW-7" style="edgeStyle=orthogonalEdgeStyle;rounded=0;orthogonalLoop=1;jettySize=auto;html=1;exitX=0;exitY=0.5;exitDx=0;exitDy=0;entryX=1;entryY=0.5;entryDx=0;entryDy=0;" parent="1" source="2mcqdDNEF0mdqTCsAkvW-8" target="2mcqdDNEF0mdqTCsAkvW-5" edge="1">
          <mxGeometry relative="1" as="geometry" />
        </mxCell>
        <mxCell id="2mcqdDNEF0mdqTCsAkvW-8" value="Engineer" style="swimlane;whiteSpace=wrap;html=1;startSize=40;" parent="1" vertex="1">
          <mxGeometry x="300" y="120" width="180" height="120" as="geometry" />
        </mxCell>
        <mxCell id="2mcqdDNEF0mdqTCsAkvW-9" value="+setState(): void&lt;div&gt;+getState() :String&lt;/div&gt;&lt;div&gt;+saveStatetoLaptop() :Laptop&lt;/div&gt;&lt;div&gt;+getStatefromLaptop() :void&lt;/div&gt;" style="text;html=1;align=center;verticalAlign=middle;resizable=0;points=[];autosize=1;strokeColor=none;fillColor=none;" parent="2mcqdDNEF0mdqTCsAkvW-8" vertex="1">
          <mxGeometry y="40" width="180" height="70" as="geometry" />
        </mxCell>
        <mxCell id="2mcqdDNEF0mdqTCsAkvW-11" value="uses" style="text;html=1;align=center;verticalAlign=middle;resizable=0;points=[];autosize=1;strokeColor=none;fillColor=none;rotation=0;" parent="1" vertex="1">
          <mxGeometry x="170" y="50" width="50" height="30" as="geometry" />
        </mxCell>
        <mxCell id="8dheOGsKXrHYBhb0B3g4-6" style="edgeStyle=orthogonalEdgeStyle;rounded=0;orthogonalLoop=1;jettySize=auto;html=1;exitX=0;exitY=0.5;exitDx=0;exitDy=0;entryX=1;entryY=0.5;entryDx=0;entryDy=0;" edge="1" parent="1" source="8dheOGsKXrHYBhb0B3g4-1" target="2mcqdDNEF0mdqTCsAkvW-5">
          <mxGeometry relative="1" as="geometry" />
        </mxCell>
        <mxCell id="8dheOGsKXrHYBhb0B3g4-1" value="Laptop" style="swimlane;whiteSpace=wrap;html=1;startSize=40;" vertex="1" parent="1">
          <mxGeometry x="300" y="300" width="180" height="90" as="geometry" />
        </mxCell>
        <mxCell id="8dheOGsKXrHYBhb0B3g4-2" value="+getState() :String" style="text;html=1;align=center;verticalAlign=middle;resizable=0;points=[];autosize=1;strokeColor=none;fillColor=none;" vertex="1" parent="8dheOGsKXrHYBhb0B3g4-1">
          <mxGeometry x="30" y="50" width="120" height="30" as="geometry" />
        </mxCell>
        <mxCell id="8dheOGsKXrHYBhb0B3g4-5" value="" style="endArrow=none;html=1;rounded=0;exitX=0;exitY=0.5;exitDx=0;exitDy=0;entryX=1;entryY=0.5;entryDx=0;entryDy=0;" edge="1" parent="1" source="2mcqdDNEF0mdqTCsAkvW-5" target="2mcqdDNEF0mdqTCsAkvW-5">
          <mxGeometry width="50" height="50" relative="1" as="geometry">
            <mxPoint x="120" y="290" as="sourcePoint" />
            <mxPoint x="170" y="240" as="targetPoint" />
          </mxGeometry>
        </mxCell>
        <mxCell id="8dheOGsKXrHYBhb0B3g4-7" value="-Laptop ArrayList" style="text;html=1;align=center;verticalAlign=middle;resizable=0;points=[];autosize=1;strokeColor=none;fillColor=none;" vertex="1" parent="1">
          <mxGeometry x="-40" y="230" width="110" height="30" as="geometry" />
        </mxCell>
        <mxCell id="8dheOGsKXrHYBhb0B3g4-8" value="+add() :void&lt;div&gt;+get() :void&lt;/div&gt;" style="text;html=1;align=center;verticalAlign=middle;resizable=0;points=[];autosize=1;strokeColor=none;fillColor=none;" vertex="1" parent="1">
          <mxGeometry x="-40" y="280" width="90" height="40" as="geometry" />
        </mxCell>
        <mxCell id="8dheOGsKXrHYBhb0B3g4-9" value="uses" style="text;html=1;align=center;verticalAlign=middle;resizable=0;points=[];autosize=1;strokeColor=none;fillColor=none;" vertex="1" parent="1">
          <mxGeometry x="130" y="230" width="50" height="30" as="geometry" />
        </mxCell>
      </root>
    </mxGraphModel>
  </diagram>
</mxfile>
